<?xml version="1.0" encoding="UTF-8" standalone="no"?>
<!DOCTYPE svg PUBLIC "-//W3C//DTD SVG 1.1//EN" "http://www.w3.org/Graphics/SVG/1.1/DTD/svg11.dtd">
<svg width="100%" height="100%" viewBox="0 0 2048 2048" version="1.1" xmlns="http://www.w3.org/2000/svg" xmlns:xlink="http://www.w3.org/1999/xlink" xml:space="preserve" xmlns:serif="http://www.serif.com/" style="fill-rule:evenodd;clip-rule:evenodd;stroke-linejoin:round;stroke-miterlimit:2;">
    <path d="M740.375,1645.358C816.166,1593.825 891.678,1542.525 967.116,1491.114C971.161,1488.357 975.148,1487.117 980.065,1487.122C1105.063,1487.239 1230.06,1487.248 1355.058,1487.139C1359.618,1487.135 1362.77,1488.525 1365.953,1491.721C1396.058,1521.953 1426.317,1552.032 1456.525,1582.163C1457.677,1583.312 1458.751,1584.539 1460.764,1586.698C1457.726,1586.698 1455.827,1586.698 1453.929,1586.698C1305.431,1586.692 1156.934,1586.698 1008.437,1586.613C1004.245,1586.61 1000.813,1587.636 997.336,1590.001C885.21,1666.262 773.08,1742.518 660.829,1818.595C621.21,1845.446 571.126,1841.779 536.162,1808.998C517.054,1791.084 506.491,1768.48 506.369,1741.911C506.147,1693.246 506.333,1644.58 506.364,1595.914C506.37,1586.528 506.395,1586.827 497.343,1586.584C472.383,1585.912 447.282,1586.402 422.505,1583.84C365.412,1577.937 313.085,1558.043 266.531,1524.394C200.199,1476.448 156.067,1413.046 136.634,1333.099C130.435,1307.6 127.182,1281.657 127.173,1255.433C127.099,1029.437 126.541,803.438 127.511,577.446C127.895,487.872 160.07,409.986 224.839,347.263C273.443,300.192 331.675,271.166 399.089,261.984C414.052,259.946 429.275,258.952 444.38,258.946C829.04,258.776 1213.7,258.883 1598.36,258.683C1642.015,258.661 1684.427,264.609 1724.773,281.54C1792.281,309.87 1844.992,355.32 1881.089,419.38C1903.733,459.566 1917.01,502.812 1920.836,548.685C1922.673,570.715 1922.796,592.931 1922.81,615.064C1922.95,827.894 1923.104,1040.724 1922.804,1253.553C1922.689,1335.431 1896.275,1407.991 1842.938,1470.536C1828.933,1486.959 1813.219,1501.493 1797.384,1515.16C1772.031,1490.067 1746.967,1465.26 1721.618,1440.172C1725.155,1437.231 1728.814,1434.399 1732.24,1431.308C1765.246,1401.533 1786.4,1364.794 1794.764,1321.232C1797.945,1304.662 1799.713,1287.552 1799.736,1270.684C1799.987,1087.022 1799.759,903.358 1799.674,719.695C1799.652,672.881 1800.147,626.062 1799.575,579.255C1798.591,498.87 1762.168,439.025 1692.022,400.49C1666.24,386.327 1637.563,379.994 1607.888,379.95C1534.889,379.844 1461.89,379.847 1388.891,379.848C1075.73,379.852 762.568,379.943 449.407,379.783C415.183,379.766 382.681,386.434 352.997,403.308C294.72,436.435 261.033,486.713 251.865,553.184C250.731,561.404 250.251,569.778 250.248,578.08C250.164,810.909 249.808,1043.74 250.448,1276.567C250.605,1333.953 270.42,1384.707 312.158,1425.303C348.605,1460.753 392.32,1481.472 443.207,1486.115C453.303,1487.037 463.497,1487.143 473.647,1487.171C515.479,1487.288 557.312,1487.231 599.144,1487.237C600.939,1487.238 602.733,1487.237 605.113,1487.237L605.113,1737.375C650.694,1706.369 695.387,1675.968 740.375,1645.358Z" style="fill-rule:nonzero;"/>
    <path d="M927.122,524.068C961.508,516.705 995.826,512.411 1030.608,513.035C1117.982,514.602 1197.706,539.821 1269.002,590.782C1270.085,591.557 1271.146,592.369 1272.167,593.224C1272.529,593.528 1272.741,594.011 1273.269,594.766C1268.802,599.608 1264.329,604.492 1259.818,609.34C1244.607,625.683 1229.386,642.016 1214.16,658.345C1209.311,663.545 1209.287,663.552 1203.449,659.754C1162.03,632.807 1116.939,615.883 1067.826,609.735C1000.502,601.306 936.072,610.989 876.001,642.839C796.127,685.188 741.762,749.639 713.911,835.959C702.076,872.638 696.905,910.333 699.239,948.768C703.812,1024.077 730.413,1090.745 780.091,1147.73C824.812,1199.031 880.35,1233.268 946.213,1250.505C980.023,1259.354 1014.421,1261.795 1049.266,1259.249C1117.055,1254.294 1176.99,1229.469 1229.495,1186.949C1289.374,1138.458 1327.344,1076.1 1343.847,1000.78C1357.642,937.824 1352.208,876.357 1329.286,816.292C1328.118,813.232 1327.236,810.702 1330.038,807.706C1351.319,784.954 1372.428,762.04 1393.608,739.192C1394.385,738.354 1395.34,737.681 1396.983,736.268C1436.931,812.427 1451.584,892.921 1442.905,977.648C1434.218,1062.452 1402.133,1137.766 1347.722,1203.989C1349.279,1205.741 1350.6,1207.387 1352.082,1208.874C1377.969,1234.838 1403.838,1260.82 1429.876,1286.632C1431.319,1288.063 1434.34,1288.923 1436.38,1288.58C1462.917,1284.118 1485.963,1290.88 1505.044,1309.916C1585.864,1390.543 1666.572,1471.281 1747.378,1551.922C1760.819,1565.335 1769.109,1581.333 1771.917,1600.013C1777.039,1634.086 1760.612,1667.17 1730.896,1684.673C1700.333,1702.675 1657.25,1697.423 1631.908,1671.765C1552.156,1591.02 1471.692,1510.977 1391.276,1430.891C1375.806,1415.484 1366.199,1397.827 1365.642,1375.812C1365.509,1370.536 1366.23,1365.201 1366.98,1359.954C1367.447,1356.689 1366.836,1354.333 1364.434,1351.938C1337.291,1324.873 1310.198,1297.758 1283.249,1270.5C1280.349,1267.567 1278.497,1268.749 1276.124,1270.597C1251.674,1289.637 1224.956,1304.86 1196.771,1317.586C1160.884,1333.789 1123.379,1344.395 1084.445,1350.151C1058.642,1353.967 1032.692,1355.186 1006.705,1353.909C922.124,1349.753 845.152,1323.461 777.036,1272.819C696.19,1212.712 642.192,1134.211 617.474,1036.204C607.104,995.087 602.984,953.211 605.308,910.861C610.35,818.953 641.859,737.104 700.471,666.089C751.521,604.236 815.225,560.254 891.197,534.336C902.838,530.364 914.861,527.515 927.122,524.068Z" style="fill-rule:nonzero;"/>
    <path d="M912.123,883.895C918.828,891.102 925.286,898.055 931.781,904.975C949.561,923.921 967.354,942.856 985.159,961.779C985.932,962.601 986.879,963.258 988.211,964.387C990.99,961.298 993.603,958.344 996.27,955.438C1016.201,933.725 1036.155,912.032 1056.079,890.312C1084.106,859.76 1112.097,829.176 1140.135,798.634C1156.352,780.97 1172.602,763.337 1188.887,745.737C1222.024,709.924 1255.156,674.107 1288.369,638.366C1305.148,620.309 1322.134,602.444 1338.931,584.404C1341.162,582.007 1342.599,581.381 1345.335,583.947C1368.654,605.825 1392.116,627.552 1415.524,649.335C1415.993,649.772 1416.329,650.35 1417.008,651.223C1411.245,657.7 1405.625,664.222 1399.786,670.542C1373.68,698.798 1347.491,726.977 1321.369,755.219C1293.214,785.66 1265.084,816.123 1236.974,846.605C1209.77,876.106 1182.592,905.631 1155.428,935.171C1128.942,963.974 1102.466,992.788 1076.027,1021.634C1048.801,1051.34 1021.623,1081.09 994.429,1110.825C992.529,1112.903 990.671,1115.02 988.406,1117.552C924.248,1049.27 860.675,981.609 796.579,913.391C821.414,889.305 845.98,865.478 871.099,841.116C884.991,855.593 898.442,869.609 912.123,883.895Z" style="fill-rule:nonzero;"/>
    <path d="M511.176,774C511.166,796.998 511.179,819.496 511.138,841.994C511.111,856.957 508.456,871.47 503.237,885.482C494.917,907.819 479.374,923.172 457.027,932.426C461.496,934.602 465.709,936.37 469.647,938.619C491.402,951.048 503.132,970.546 507.786,994.519C509.678,1004.264 510.857,1014.294 510.974,1024.21C511.368,1057.703 510.987,1091.203 511.282,1124.698C511.34,1131.266 512.446,1137.996 514.187,1144.344C518.793,1161.132 530.854,1169.46 550.271,1169.838C559.72,1170.023 569.174,1169.87 578.916,1169.87L578.916,1231.031C578.212,1231.222 577.451,1231.628 576.706,1231.6C555.088,1230.798 533.331,1231.227 511.886,1228.85C467.448,1223.924 444.022,1194.485 440.291,1153.883C438.148,1130.559 438.633,1106.981 438.272,1083.512C437.957,1063.018 438.527,1042.504 437.865,1022.026C437.589,1013.49 436.068,1004.729 433.49,996.584C426.541,974.629 409.769,965.154 387.911,963.026C385.594,962.801 383.25,962.82 380.918,962.777C378.787,962.738 376.654,962.769 374.187,962.769L374.187,902.638C381.129,901.961 387.983,901.849 394.602,900.546C419.102,895.724 433.749,879.657 436.874,854.478C437.651,848.215 438.096,841.871 438.119,835.562C438.243,801.566 437.795,767.562 438.394,733.576C438.618,720.849 440.052,707.922 442.816,695.505C450.269,662.017 471.95,642.381 505.351,636.275C518.041,633.956 531.143,633.622 544.087,633.042C555.528,632.53 567.011,632.935 578.806,632.935L578.806,694.031C574.172,694.031 569.717,693.926 565.269,694.056C558.783,694.246 552.282,694.373 545.823,694.934C525.555,696.695 513.259,708.971 512.051,729.545C511.192,744.163 511.429,758.846 511.176,774Z" style="fill-rule:nonzero;"/>
    <path d="M1495.001,1231.292C1486.868,1231.291 1479.233,1231.291 1471.221,1231.291L1471.221,1169.949C1476.015,1169.949 1480.786,1170.019 1485.556,1169.932C1492.211,1169.812 1498.935,1170.123 1505.507,1169.285C1524.696,1166.837 1534.521,1157.254 1537.935,1138.231C1538.549,1134.815 1538.819,1131.294 1538.826,1127.82C1538.9,1093.324 1538.867,1058.828 1538.904,1024.333C1538.921,1009.571 1541.213,995.142 1545.928,981.161C1553.312,959.266 1567.795,943.792 1588.877,934.434C1590.075,933.902 1591.255,933.326 1592.802,932.602C1588.791,930.498 1585.068,928.704 1581.497,926.646C1558.619,913.467 1546.655,892.804 1542.197,867.546C1540.211,856.295 1539.114,844.764 1538.946,833.341C1538.497,802.685 1538.849,772.017 1538.681,741.355C1538.648,735.393 1538.228,729.332 1537.082,723.495C1533.661,706.06 1522.969,696.305 1505.206,695.095C1494.127,694.34 1482.954,694.955 1471.433,694.955L1471.433,633.522C1471.702,633.341 1471.969,633.003 1472.227,633.011C1494.343,633.65 1516.629,632.812 1538.536,635.303C1580.459,640.07 1605.995,667.143 1609.886,709.334C1611.458,726.375 1611.595,743.574 1611.803,760.708C1612.113,786.201 1611.888,811.701 1611.929,837.198C1611.946,848.432 1613.308,859.486 1617.417,870.013C1624.694,888.657 1639.287,897.875 1658.328,900.93C1664.024,901.844 1669.845,901.984 1675.876,902.502L1675.876,962.158C1669.594,962.679 1663.275,962.748 1657.12,963.79C1626.317,969.007 1616.418,987.455 1613.066,1011.727C1612.136,1018.457 1612.087,1025.343 1612.065,1032.158C1611.96,1064.154 1612.536,1096.163 1611.76,1128.141C1611.403,1142.845 1610.031,1157.875 1606.441,1172.08C1598.223,1204.601 1573.442,1225.131 1539.347,1228.918C1524.823,1230.532 1510.122,1230.549 1495.001,1231.292Z" style="fill-rule:nonzero;"/>
</svg>
