<?xml version="1.0" encoding="UTF-8" standalone="no"?>
<!DOCTYPE svg PUBLIC "-//W3C//DTD SVG 1.1//EN" "http://www.w3.org/Graphics/SVG/1.1/DTD/svg11.dtd">
<svg width="100%" height="100%" viewBox="0 0 540 540" version="1.1" xmlns="http://www.w3.org/2000/svg" xmlns:xlink="http://www.w3.org/1999/xlink" xml:space="preserve" xmlns:serif="http://www.serif.com/" style="fill-rule:evenodd;clip-rule:evenodd;stroke-linejoin:round;stroke-miterlimit:2;">
    <g id="Background" transform="matrix(1,0,0,1,65,82)">
        <path d="M389.499,372.965C380.084,372.73 380.02,372.572 371.642,368.23C368.463,366.583 355.448,356.752 355.352,356.661C346.17,347.927 323.975,332.798 295.017,280.756C271.819,239.066 259.328,226.634 255.339,222.664C228.81,196.261 191.907,199.832 171.709,209.931C152.673,219.449 143.003,235.242 138.724,240.676C135.127,245.244 135.62,245.545 100.946,302.752C79.728,337.76 40.8,372.263 22.541,373.793C-6.055,376.19 0.641,355.137 12.327,343.334C14.598,341.04 30.382,325.098 38.057,312.255C39.306,310.165 55.577,286.828 70.763,241.604C104.818,140.183 120.26,26.804 179.469,6.424C209.938,-4.063 231.076,6.176 240.752,12.041C271.186,30.488 285.559,73.218 287.966,78.29C296.671,96.639 314.31,160.433 314.574,161.472C323.939,198.377 337.345,237.904 339.572,244.471C340.645,247.634 347.363,267.445 354.977,283.275C375.754,326.477 396.799,342.116 399.945,347.24C400.736,348.527 407.866,360.139 405.223,365.369C401.261,373.212 396.106,373.036 389.499,372.965Z" style="fill:white;fill-opacity:1;"/>
    </g>
</svg>
